<svg width="56" height="57" viewBox="0 0 56 57" fill="none" xmlns="http://www.w3.org/2000/svg">
<rect y="1" width="55.5005" height="55.5005" rx="27.7502" fill="#EEEEEE"/>
<path d="M39.52 39.5896C38.4329 37.1897 35.8572 36.3437 34.7052 36.2208L40.2397 28.3107C42.8609 32.9111 40.8521 37.7468 39.52 39.5896Z" fill="#252424" stroke="#EEEEEE" stroke-width="0.629608"/>
<path d="M13.6602 21.4958C16.2873 21.6947 17.9647 23.8246 18.475 24.8646L24.0095 16.9546C18.7895 16.0686 14.9349 19.6129 13.6602 21.4958Z" fill="#252424" stroke="#EEEEEE" stroke-width="0.629608"/>
<mask id="path-4-inside-1_1_322" fill="white">
<path fill-rule="evenodd" clip-rule="evenodd" d="M19.5835 26.0167C19.5963 25.9811 19.6138 25.9473 19.6355 25.9163L26.9861 15.4109C27.1069 15.2382 27.2497 15.0816 27.4131 14.9484C30.8951 12.1102 35.0261 10.3018 39.3397 9.60576C40.4765 9.42232 41.5434 10.1688 41.7606 11.2996C42.5847 15.5906 42.3014 20.0912 40.8281 24.335C40.759 24.5341 40.6608 24.7219 40.54 24.8946L33.19 35.3993C33.1682 35.4304 33.1425 35.4584 33.1134 35.4827V35.4827C32.9657 35.6056 32.7542 35.6128 32.5968 35.5026L19.7415 26.508C19.5844 26.398 19.5188 26.1972 19.5835 26.0167V26.0167Z"/>
</mask>
<path fill-rule="evenodd" clip-rule="evenodd" d="M19.5835 26.0167C19.5963 25.9811 19.6138 25.9473 19.6355 25.9163L26.9861 15.4109C27.1069 15.2382 27.2497 15.0816 27.4131 14.9484C30.8951 12.1102 35.0261 10.3018 39.3397 9.60576C40.4765 9.42232 41.5434 10.1688 41.7606 11.2996C42.5847 15.5906 42.3014 20.0912 40.8281 24.335C40.759 24.5341 40.6608 24.7219 40.54 24.8946L33.19 35.3993C33.1682 35.4304 33.1425 35.4584 33.1134 35.4827V35.4827C32.9657 35.6056 32.7542 35.6128 32.5968 35.5026L19.7415 26.508C19.5844 26.398 19.5188 26.1972 19.5835 26.0167V26.0167Z" fill="#252424"/>
<path d="M40.8281 24.335L40.2207 24.1242L40.8281 24.335ZM41.7606 11.2996L41.1291 11.4209L41.7606 11.2996ZM20.1623 26.2849L27.5129 15.7795L26.4593 15.0423L19.1087 25.5477L20.1623 26.2849ZM39.2373 8.97102C34.8148 9.68465 30.5785 11.5388 27.0069 14.45L27.8193 15.4468C31.2118 12.6815 35.2374 10.919 39.4422 10.2405L39.2373 8.97102ZM41.4355 24.5459C42.9467 20.1929 43.237 15.5776 42.392 11.1783L41.1291 11.4209C41.9325 15.6036 41.6561 19.9895 40.2207 24.1242L41.4355 24.5459ZM40.0132 24.526L32.6632 35.0307L33.7168 35.7679L41.0668 25.2632L40.0132 24.526ZM32.9654 34.9758L20.1101 25.9811L19.3729 27.0348L32.2282 36.0294L32.9654 34.9758ZM20.1101 25.9811C20.1865 26.0346 20.2236 26.1367 20.1887 26.2338L18.9784 25.7995C18.814 26.2577 18.9823 26.7615 19.3729 27.0348L20.1101 25.9811ZM32.702 34.9886C32.7811 34.9227 32.8893 34.9226 32.9654 34.9758L32.2282 36.0294C32.6191 36.3029 33.1504 36.2885 33.5248 35.9768L32.702 34.9886ZM32.6632 35.0307C32.6738 35.0155 32.6867 35.0013 32.702 34.9886L33.5248 35.9768C33.5983 35.9156 33.6627 35.8452 33.7168 35.7679L32.6632 35.0307ZM40.2207 24.1242C40.1724 24.2634 40.1024 24.3985 40.0132 24.526L41.0668 25.2632C41.2193 25.0453 41.3456 24.8048 41.4355 24.5459L40.2207 24.1242ZM39.4422 10.2405C40.2357 10.1124 40.9775 10.6315 41.1291 11.4209L42.392 11.1783C42.1092 9.70615 40.7173 8.7322 39.2373 8.97102L39.4422 10.2405ZM27.5129 15.7795C27.6021 15.652 27.705 15.5399 27.8193 15.4468L27.0069 14.45C26.7944 14.6232 26.6118 14.8243 26.4593 15.0423L27.5129 15.7795ZM19.1087 25.5477C19.0547 25.625 19.0107 25.7096 18.9784 25.7995L20.1887 26.2338C20.182 26.2526 20.173 26.2697 20.1623 26.2849L19.1087 25.5477Z" fill="#EEEEEE" mask="url(#path-4-inside-1_1_322)"/>
<path d="M19.2058 27.5704L31.9127 36.4613L30.1016 39.0498C29.352 40.1212 27.8758 40.382 26.8045 39.6324L17.9772 33.456C16.9059 32.7064 16.6451 31.2303 17.3947 30.1589L19.2058 27.5704Z" fill="#252424" stroke="#EEEEEE" stroke-width="0.642949"/>
<rect x="15.5078" y="34.603" width="1.92928" height="7.07402" rx="0.964639" transform="rotate(34.9801 15.5078 34.603)" fill="#252424" stroke="#EEEEEE" stroke-width="0.643093"/>
<rect x="24.9924" y="41.2393" width="1.92928" height="7.07402" rx="0.964639" transform="rotate(34.9801 24.9924 41.2393)" fill="#252424" stroke="#EEEEEE" stroke-width="0.643093"/>
<rect x="20.6188" y="37.3942" width="1.92928" height="11.8972" rx="0.964639" transform="rotate(34.9801 20.6188 37.3942)" fill="#252424" stroke="#EEEEEE" stroke-width="0.643093"/>
</svg>
