<svg width="56" height="56" viewBox="0 0 56 56" fill="none" xmlns="http://www.w3.org/2000/svg">
<rect width="55.5005" height="55.5005" rx="27.7502" fill="#252424"/>
<path d="M37.421 36.6316C36.5297 34.6639 34.4179 33.9703 33.4734 33.8695L38.0111 27.3842C40.1602 31.1559 38.5131 35.1207 37.421 36.6316Z" fill="white" stroke="white" stroke-width="0.516207"/>
<path d="M16.2189 21.7967C18.3729 21.9598 19.7481 23.706 20.1665 24.5588L24.7042 18.0735C20.4244 17.347 17.2641 20.2529 16.2189 21.7967Z" fill="white" stroke="white" stroke-width="0.516207"/>
<mask id="path-4-inside-1_1_340" fill="white">
<path fill-rule="evenodd" clip-rule="evenodd" d="M21.0756 25.503C21.0861 25.4738 21.1005 25.4461 21.1183 25.4207L27.1445 16.8079C27.2436 16.6663 27.3607 16.5379 27.4946 16.4288C30.3495 14.1016 33.7365 12.6189 37.2732 12.0482C38.2052 11.8978 39.08 12.5099 39.258 13.437C39.9338 16.9551 39.7015 20.6451 38.4935 24.1245C38.4369 24.2878 38.3564 24.4418 38.2573 24.5833L32.2311 33.196C32.2133 33.2214 32.1922 33.2445 32.1683 33.2643V33.2643C32.0473 33.3651 31.8738 33.371 31.7448 33.2807L21.2053 25.9063C21.0763 25.8161 21.0224 25.6512 21.0756 25.503V25.503Z"/>
</mask>
<path fill-rule="evenodd" clip-rule="evenodd" d="M21.0756 25.503C21.0861 25.4738 21.1005 25.4461 21.1183 25.4207L27.1445 16.8079C27.2436 16.6663 27.3607 16.5379 27.4946 16.4288C30.3495 14.1016 33.7365 12.6189 37.2732 12.0482C38.2052 11.8978 39.08 12.5099 39.258 13.437C39.9338 16.9551 39.7015 20.6451 38.4935 24.1245C38.4369 24.2878 38.3564 24.4418 38.2573 24.5833L32.2311 33.196C32.2133 33.2214 32.1922 33.2445 32.1683 33.2643V33.2643C32.0473 33.3651 31.8738 33.371 31.7448 33.2807L21.2053 25.9063C21.0763 25.8161 21.0224 25.6512 21.0756 25.503V25.503Z" fill="white"/>
<path d="M21.2053 25.9063L20.9031 26.3382L21.2053 25.9063ZM31.7448 33.2807L32.047 32.8488L31.7448 33.2807ZM38.4935 24.1245L38.9915 24.2974L38.4935 24.1245ZM21.5502 25.7229L27.5765 17.1101L26.7126 16.5057L20.6864 25.1185L21.5502 25.7229ZM37.1893 11.5278C33.5633 12.1129 30.0899 13.6332 27.1616 16.0202L27.8277 16.8374C30.6091 14.5701 33.9097 13.125 37.3572 12.5686L37.1893 11.5278ZM38.9915 24.2974C40.2305 20.7285 40.4685 16.9445 39.7757 13.3375L38.7404 13.5364C39.399 16.9658 39.1724 20.5617 37.9955 23.9517L38.9915 24.2974ZM37.8254 24.2811L31.7992 32.8938L32.6631 33.4982L38.6892 24.8855L37.8254 24.2811ZM32.047 32.8488L21.5075 25.4744L20.9031 26.3382L31.4426 33.7126L32.047 32.8488ZM21.5075 25.4744C21.5699 25.5181 21.6003 25.6016 21.5718 25.6811L20.5794 25.325C20.4446 25.7008 20.5827 26.1141 20.9031 26.3382L21.5075 25.4744ZM31.831 32.8592C31.8959 32.8052 31.9846 32.8051 32.047 32.8488L31.4426 33.7126C31.7631 33.9368 32.1987 33.925 32.5056 33.6694L31.831 32.8592ZM31.7992 32.8938C31.8079 32.8813 31.8185 32.8696 31.831 32.8592L32.5056 33.6694C32.5659 33.6193 32.6187 33.5615 32.6631 33.4982L31.7992 32.8938ZM37.9955 23.9517C37.9559 24.0658 37.8985 24.1766 37.8254 24.2811L38.6892 24.8855C38.8142 24.7069 38.9178 24.5097 38.9915 24.2974L37.9955 23.9517ZM37.3572 12.5686C38.0078 12.4636 38.616 12.8892 38.7404 13.5364L39.7757 13.3375C39.5439 12.1305 38.4026 11.332 37.1893 11.5278L37.3572 12.5686ZM27.5765 17.1101C27.6496 17.0056 27.734 16.9137 27.8277 16.8374L27.1616 16.0202C26.9874 16.1622 26.8376 16.327 26.7126 16.5057L27.5765 17.1101ZM20.6864 25.1185C20.642 25.1818 20.6059 25.2512 20.5794 25.325L21.5718 25.6811C21.5663 25.6964 21.5589 25.7104 21.5502 25.7229L20.6864 25.1185Z" fill="white" mask="url(#path-4-inside-1_1_340)"/>
<path d="M20.7657 26.7772L31.1839 34.0667L29.699 36.189C29.0844 37.0674 27.8741 37.2812 26.9957 36.6666L19.7584 31.6027C18.88 30.9881 18.6661 29.7778 19.2807 28.8995L20.7657 26.7772Z" fill="white" stroke="white" stroke-width="0.527145"/>
<rect x="17.7338" y="32.5431" width="1.58179" height="5.79989" rx="0.790894" transform="rotate(34.9801 17.7338 32.5431)" fill="white" stroke="white" stroke-width="0.527263"/>
<rect x="25.5101" y="37.9841" width="1.58179" height="5.79989" rx="0.790894" transform="rotate(34.9801 25.5101 37.9841)" fill="white" stroke="white" stroke-width="0.527263"/>
<rect x="21.9243" y="34.8316" width="1.58179" height="9.75436" rx="0.790894" transform="rotate(34.9801 21.9243 34.8316)" fill="white" stroke="white" stroke-width="0.527263"/>
</svg>
