<svg width="379" height="126" viewBox="0 0 379 126" fill="none" xmlns="http://www.w3.org/2000/svg">
<circle cx="62.3321" cy="63.2671" r="62.334" fill="black"/>
<path d="M86.2286 83.0159C84.096 78.3905 79.0431 76.76 76.7832 76.5231L87.6405 61.2777C92.7827 70.1442 88.8419 79.4642 86.2286 83.0159Z" fill="white" stroke="black" stroke-width="0.96066"/>
<path d="M35.498 48.1433C40.6518 48.5266 43.9424 52.6316 44.9435 54.6361L55.8008 39.3909C45.5605 37.6832 37.9987 44.5143 35.498 48.1433Z" fill="white" stroke="black" stroke-width="0.96066"/>
<path fill-rule="evenodd" clip-rule="evenodd" d="M47.1188 56.8568C47.1439 56.7882 47.1783 56.7231 47.2208 56.6633L61.6409 36.4159C61.8779 36.083 62.158 35.7812 62.4785 35.5245C69.3094 30.0543 77.4134 26.5689 85.8756 25.2274C88.1057 24.8739 90.1987 26.3126 90.6248 28.492C92.2415 36.7622 91.6857 45.4364 88.7954 53.6156C88.6599 53.9993 88.4672 54.3613 88.2303 54.6941L73.8114 74.9402C73.7686 75.0002 73.7182 75.0541 73.6611 75.101C73.3714 75.3378 72.9565 75.3517 72.6477 75.1393L47.4288 57.8037C47.1206 57.5917 46.9919 57.2047 47.1188 56.8568Z" fill="white"/>
<mask id="mask0_63_18081" style="mask-type:luminance" maskUnits="userSpaceOnUse" x="47" y="25" width="45" height="51">
<path fill-rule="evenodd" clip-rule="evenodd" d="M47.1188 56.8568C47.1439 56.7882 47.1783 56.7231 47.2208 56.6633L61.6409 36.4159C61.8779 36.083 62.158 35.7812 62.4785 35.5245C69.3094 30.0543 77.4134 26.5689 85.8756 25.2274C88.1057 24.8739 90.1987 26.3126 90.6248 28.492C92.2415 36.7622 91.6857 45.4364 88.7954 53.6156C88.6599 53.9993 88.4672 54.3613 88.2303 54.6941L73.8114 74.9402C73.7686 75.0002 73.7182 75.0541 73.6611 75.101C73.3714 75.3378 72.9565 75.3517 72.6477 75.1393L47.4288 57.8037C47.1206 57.5917 46.9919 57.2047 47.1188 56.8568Z" fill="white"/>
</mask>
<g mask="url(#mask0_63_18081)">
<path d="M48.2541 57.3732L62.6742 37.1258L60.6073 35.7049L46.1872 55.9524L48.2541 57.3732ZM85.6745 24.0036C76.9987 25.379 68.6881 28.9525 61.6815 34.5634L63.2753 36.4846C69.9305 31.1549 77.8277 27.758 86.0765 26.4503L85.6745 24.0036ZM89.9869 54.0216C92.9515 45.6319 93.5209 36.7367 91.8633 28.2577L89.3858 28.7253C90.9618 36.7868 90.4196 45.2399 87.6037 53.2088L89.9869 54.0216ZM87.1967 53.9832L72.7778 74.2293L74.8447 75.6501L89.2635 55.404L87.1967 53.9832ZM73.3706 74.1235L48.1517 56.7877L46.7055 58.8185L71.9244 76.1541L73.3706 74.1235ZM48.1517 56.7877C48.3016 56.8908 48.3744 57.0876 48.3059 57.2747L45.9316 56.4377C45.6091 57.3208 45.9393 58.2918 46.7055 58.8185L48.1517 56.7877ZM72.8539 74.1482C73.0091 74.0211 73.2213 74.0209 73.3706 74.1235L71.9244 76.1541C72.6913 76.6812 73.7335 76.6535 74.468 76.0527L72.8539 74.1482ZM72.7778 74.2293C72.7986 74.2 72.8239 74.1726 72.8539 74.1482L74.468 76.0527C74.6122 75.9348 74.7386 75.7991 74.8447 75.6501L72.7778 74.2293ZM87.6037 53.2088C87.509 53.4771 87.3716 53.7375 87.1967 53.9832L89.2635 55.404C89.5627 54.9841 89.8105 54.5206 89.9869 54.0216L87.6037 53.2088ZM86.0765 26.4503C87.6331 26.2034 89.0884 27.2039 89.3858 28.7253L91.8633 28.2577C91.3085 25.4204 88.5779 23.5433 85.6745 24.0036L86.0765 26.4503ZM62.6742 37.1258C62.8492 36.88 63.051 36.664 63.2753 36.4846L61.6815 34.5634C61.2647 34.8972 60.9064 35.2848 60.6073 35.7049L62.6742 37.1258ZM46.1872 55.9524C46.0813 56.1014 45.995 56.2644 45.9316 56.4377L48.3059 57.2747C48.2928 57.311 48.2751 57.3439 48.2541 57.3732L46.1872 55.9524Z" fill="black"/>
</g>
<path d="M46.3767 59.8514L71.3045 76.9872L67.7516 81.9761C66.2811 84.041 63.3851 84.5437 61.2835 83.0989L43.9665 71.195C41.8649 69.7502 41.3533 66.9053 42.8238 64.8403L46.3767 59.8514Z" fill="white" stroke="black" stroke-width="0.981016"/>
<path d="M40.6716 74.4709L40.6716 74.4709C39.8153 73.8822 38.6354 74.087 38.0362 74.9284L32.2501 83.0527C31.651 83.894 31.8594 85.0533 32.7158 85.6419C33.5721 86.2306 34.752 86.0258 35.3512 85.1845L41.1373 77.0601C41.7364 76.2188 41.528 75.0595 40.6716 74.4709Z" fill="white" stroke="black" stroke-width="0.981236"/>
<path d="M59.279 87.2618L59.279 87.2618C58.4227 86.6731 57.2428 86.8779 56.6436 87.7192L50.8576 95.8436C50.2584 96.6849 50.4669 97.8442 51.3232 98.4328C52.1795 99.0215 53.3595 98.8167 53.9586 97.9754L59.7447 89.851C60.3439 89.0096 60.1354 87.8504 59.279 87.2618Z" fill="white" stroke="black" stroke-width="0.981236"/>
<path d="M50.699 79.8514L50.699 79.8514C49.8426 79.2627 48.6627 79.4675 48.0636 80.3088L36.8531 96.0498C36.2539 96.8911 36.4624 98.0504 37.3187 98.639C38.175 99.2277 39.355 99.0228 39.9541 98.1815L51.1646 82.4406C51.7638 81.5992 51.5553 80.44 50.699 79.8514Z" fill="white" stroke="black" stroke-width="0.981236"/>
<path d="M180.094 71.1099H163.898V60.8946H180.094C182.597 60.8946 184.634 60.4871 186.206 59.6722C187.777 58.8282 188.927 57.6641 189.654 56.1798C190.382 54.6955 190.746 53.022 190.746 51.1594C190.746 49.2677 190.382 47.5069 189.654 45.8771C188.927 44.2473 187.777 42.9376 186.206 41.9481C184.634 40.9586 182.597 40.4638 180.094 40.4638H168.438V93.7671H155.341V30.2048H180.094C185.071 30.2048 189.334 31.107 192.885 32.9115C196.465 34.6868 199.2 37.146 201.092 40.2892C202.984 43.4324 203.93 47.0267 203.93 51.0721C203.93 55.1757 202.984 58.7264 201.092 61.724C199.2 64.7217 196.465 67.0354 192.885 68.6652C189.334 70.295 185.071 71.1099 180.094 71.1099ZM224.558 26.7124V93.7671H211.941V26.7124H224.558ZM259.548 83.1152V62.0733C259.548 60.5599 259.301 59.2648 258.806 58.1879C258.312 57.082 257.54 56.2234 256.493 55.6123C255.474 55.0011 254.15 54.6955 252.52 54.6955C251.123 54.6955 249.915 54.9429 248.897 55.4376C247.878 55.9033 247.092 56.5872 246.539 57.4894C245.986 58.3626 245.71 59.3957 245.71 60.589H233.137C233.137 58.5808 233.603 56.6745 234.534 54.8701C235.465 53.0657 236.819 51.4796 238.594 50.1117C240.369 48.7147 242.479 47.6233 244.924 46.8375C247.398 46.0517 250.163 45.6588 253.218 45.6588C256.885 45.6588 260.145 46.27 262.997 47.4924C265.849 48.7147 268.09 50.5482 269.72 52.9929C271.379 55.4376 272.208 58.4935 272.208 62.1606V82.373C272.208 84.9632 272.369 87.0878 272.689 88.7467C273.009 90.3765 273.474 91.8026 274.086 93.0249V93.7671H261.382C260.771 92.4865 260.305 90.8858 259.985 88.965C259.694 87.0151 259.548 85.0651 259.548 83.1152ZM261.207 64.9982L261.295 72.114H254.266C252.607 72.114 251.167 72.3032 249.944 72.6815C248.722 73.0599 247.718 73.5983 246.932 74.2968C246.146 74.9662 245.564 75.752 245.186 76.6542C244.837 77.5564 244.662 78.5459 244.662 79.6227C244.662 80.6996 244.909 81.6745 245.404 82.5477C245.899 83.3917 246.612 84.061 247.543 84.5558C248.475 85.0215 249.566 85.2543 250.817 85.2543C252.709 85.2543 254.353 84.8759 255.75 84.1192C257.147 83.3626 258.224 82.4312 258.981 81.3253C259.767 80.2194 260.174 79.1716 260.203 78.1821L263.521 83.5081C263.055 84.7013 262.415 85.9382 261.6 87.2188C260.814 88.4993 259.81 89.7071 258.588 90.8422C257.366 91.9481 255.896 92.8649 254.179 93.5925C252.462 94.291 250.424 94.6402 248.067 94.6402C245.069 94.6402 242.348 94.0436 239.903 92.8503C237.488 91.628 235.567 89.9545 234.141 87.83C232.744 85.6763 232.046 83.2316 232.046 80.4958C232.046 78.022 232.511 75.8247 233.442 73.9039C234.374 71.983 235.742 70.3678 237.546 69.0581C239.38 67.7194 241.664 66.7153 244.4 66.0459C247.136 65.3474 250.308 64.9982 253.917 64.9982H261.207ZM293.317 56.6163V93.7671H280.744V46.5319H292.531L293.317 56.6163ZM291.483 68.4906H288.078C288.078 64.9982 288.529 61.855 289.431 59.061C290.334 56.238 291.6 53.8369 293.229 51.8579C294.859 49.8498 296.795 48.3218 299.036 47.2741C301.306 46.1972 303.838 45.6588 306.632 45.6588C308.844 45.6588 310.866 45.979 312.7 46.6193C314.533 47.2595 316.105 48.2782 317.415 49.6751C318.753 51.0721 319.772 52.9202 320.47 55.2194C321.198 57.5186 321.562 60.327 321.562 63.6449V93.7671H308.902V63.6012C308.902 61.5057 308.611 59.8759 308.029 58.7118C307.447 57.5477 306.588 56.7328 305.453 56.2671C304.347 55.7723 302.979 55.525 301.349 55.525C299.661 55.525 298.192 55.8596 296.94 56.529C295.718 57.1984 294.699 58.1297 293.884 59.323C293.098 60.4871 292.502 61.855 292.094 63.4266C291.687 64.9982 291.483 66.6862 291.483 68.4906ZM343.5 46.5319V93.7671H330.883V46.5319H343.5ZM330.097 34.2211C330.097 32.3876 330.738 30.8742 332.018 29.681C333.299 28.4877 335.016 27.8911 337.169 27.8911C339.294 27.8911 340.997 28.4877 342.277 29.681C343.587 30.8742 344.242 32.3876 344.242 34.2211C344.242 36.0546 343.587 37.568 342.277 38.7613C340.997 39.9545 339.294 40.5511 337.169 40.5511C335.016 40.5511 333.299 39.9545 332.018 38.7613C330.738 37.568 330.097 36.0546 330.097 34.2211ZM376.133 46.5319V55.4376H348.63V46.5319H376.133ZM355.44 34.8759H368.013V79.5354C368.013 80.9033 368.188 81.951 368.537 82.6786C368.915 83.4062 369.468 83.9155 370.196 84.2066C370.923 84.4685 371.84 84.5995 372.946 84.5995C373.732 84.5995 374.43 84.5704 375.041 84.5121C375.682 84.4248 376.22 84.3375 376.657 84.2502L376.7 93.5052C375.623 93.8544 374.459 94.1309 373.208 94.3346C371.956 94.5383 370.574 94.6402 369.061 94.6402C366.296 94.6402 363.88 94.1891 361.814 93.2869C359.777 92.3556 358.205 90.8713 357.099 88.834C355.993 86.7968 355.44 84.1192 355.44 80.8014V34.8759Z" fill="black"/>
</svg>
