<svg width="141" height="56" viewBox="0 0 141 56" fill="none" xmlns="http://www.w3.org/2000/svg">
<path d="M2.8614 45V11.617H14.3547C16.151 11.617 17.7725 12.0621 19.2191 12.9523C20.6816 13.8425 21.842 15.0427 22.7004 16.5529C23.5748 18.0631 24.0119 19.7322 24.0119 21.5604C24.0119 23.4203 23.5668 25.1053 22.6766 26.6155C21.8023 28.1098 20.6339 29.302 19.1714 30.1923C17.7089 31.0825 16.1033 31.5276 14.3547 31.5276H7.82116V45H2.8614ZM7.82116 26.5678H13.8539C14.8077 26.5678 15.6741 26.3294 16.4531 25.8525C17.2479 25.3756 17.8758 24.7397 18.3368 23.9449C18.8137 23.15 19.0522 22.2519 19.0522 21.2504C19.0522 20.2489 18.8137 19.3507 18.3368 18.5559C17.8758 17.7452 17.2479 17.1093 16.4531 16.6483C15.6741 16.1714 14.8077 15.9329 13.8539 15.9329H7.82116V26.5678ZM28.5693 45V9.2325H33.529V45H28.5693ZM57.4597 21.155H62.4195V45H57.4359L57.2451 41.5425C56.5457 42.7665 55.5998 43.7521 54.4076 44.4993C53.2153 45.2464 51.8085 45.62 50.187 45.62C48.4384 45.62 46.7931 45.2941 45.2511 44.6423C43.7091 43.9747 42.35 43.0527 41.1736 41.8763C40.0132 40.7 39.107 39.3487 38.4553 37.8227C37.8035 36.2807 37.4776 34.6274 37.4776 32.8629C37.4776 31.162 37.7956 29.5643 38.4314 28.07C39.0673 26.5599 39.9496 25.2404 41.0782 24.1118C42.2069 22.9831 43.5104 22.1009 44.9888 21.465C46.4831 20.8132 48.0807 20.4873 49.7817 20.4873C51.5144 20.4873 53.0405 20.8848 54.3599 21.6796C55.6952 22.4585 56.8 23.46 57.6743 24.6841L57.4597 21.155ZM50.0678 40.8271C51.4667 40.8271 52.6907 40.4853 53.7399 39.8018C54.7891 39.1023 55.5998 38.1644 56.1721 36.9881C56.7603 35.8117 57.0544 34.5082 57.0544 33.0775C57.0544 31.6309 56.7603 30.3194 56.1721 29.1431C55.5839 27.9667 54.7653 27.0368 53.7161 26.3532C52.6828 25.6538 51.4667 25.304 50.0678 25.304C48.6848 25.304 47.421 25.6538 46.2764 26.3532C45.1319 27.0527 44.2258 27.9906 43.5581 29.1669C42.8904 30.3433 42.5566 31.6468 42.5566 33.0775C42.5566 34.5241 42.8984 35.8356 43.582 37.0119C44.2814 38.1724 45.1955 39.1023 46.3241 39.8018C47.4687 40.4853 48.7166 40.8271 50.0678 40.8271ZM88.6382 30.0492V45H83.6784V31.2653C83.6784 30.2002 83.4161 29.2305 82.8916 28.3562C82.3829 27.4819 81.6914 26.7904 80.817 26.2817C79.9586 25.7571 78.9889 25.4948 77.908 25.4948C76.8588 25.4948 75.897 25.7571 75.0227 26.2817C74.1484 26.7904 73.4489 27.4819 72.9243 28.3562C72.3998 29.2305 72.1375 30.2002 72.1375 31.2653V45H67.1777V21.155H72.1375V23.6826C72.9641 22.697 73.9815 21.918 75.1896 21.3458C76.3978 20.7735 77.7013 20.4873 79.1002 20.4873C80.8647 20.4873 82.4703 20.9166 83.9169 21.775C85.3635 22.6334 86.508 23.7859 87.3506 25.2325C88.209 26.6791 88.6382 28.2847 88.6382 30.0492ZM93.3979 28.2131H108.659V33.1729H93.3979V28.2131ZM115.117 45V11.617H120.077V45H115.117ZM139.101 26.1148H134.093L134.07 45H129.11L129.134 26.1148H125.342V21.155H129.134L129.11 13.6677H134.07L134.093 21.155H139.101V26.1148Z" fill="black"/>
</svg>
