<svg width="229" height="359" viewBox="0 0 229 359" fill="none" xmlns="http://www.w3.org/2000/svg">
<circle cx="114.5" cy="114.5" r="114.5" fill="black"/>
<path d="M158.393 150.776C154.476 142.28 145.194 139.285 141.043 138.85L160.987 110.846C170.432 127.132 163.193 144.252 158.393 150.776Z" fill="white" stroke="black" stroke-width="1.76462"/>
<path d="M65.207 86.7193C74.6738 87.4235 80.7183 94.9639 82.5572 98.6458L102.501 70.6422C83.6905 67.5055 69.8004 80.0533 65.207 86.7193Z" fill="white" stroke="black" stroke-width="1.76462"/>
<path fill-rule="evenodd" clip-rule="evenodd" d="M86.552 102.725C86.5981 102.599 86.6612 102.479 86.7394 102.37L113.227 65.1775C113.663 64.5661 114.177 64.0117 114.766 63.5402C127.313 53.4921 142.199 47.0899 157.743 44.6257C161.84 43.9763 165.684 46.619 166.467 50.6224C169.437 65.8137 168.416 81.7471 163.107 96.7714C162.858 97.4762 162.504 98.1411 162.069 98.7525L135.583 135.942C135.504 136.052 135.412 136.151 135.307 136.237C134.775 136.672 134.013 136.698 133.445 136.308L87.1213 104.464C86.5552 104.075 86.3188 103.364 86.552 102.725Z" fill="white"/>
<mask id="mask0_104_36" style="mask-type:luminance" maskUnits="userSpaceOnUse" x="86" y="44" width="83" height="93">
<path fill-rule="evenodd" clip-rule="evenodd" d="M86.552 102.725C86.5981 102.599 86.6612 102.479 86.7394 102.37L113.227 65.1775C113.663 64.5661 114.177 64.0117 114.766 63.5402C127.313 53.4921 142.199 47.0899 157.743 44.6257C161.84 43.9763 165.684 46.619 166.467 50.6224C169.437 65.8137 168.416 81.7471 163.107 96.7714C162.858 97.4762 162.504 98.1411 162.069 98.7525L135.583 135.942C135.504 136.052 135.412 136.151 135.307 136.237C134.775 136.672 134.013 136.698 133.445 136.308L87.1213 104.464C86.5552 104.075 86.3188 103.364 86.552 102.725Z" fill="white"/>
</mask>
<g mask="url(#mask0_104_36)">
<path d="M88.6367 103.674L115.125 66.4816L111.328 63.8717L84.84 101.064L88.6367 103.674ZM157.373 42.3776C141.437 44.9041 126.171 51.4683 113.301 61.7748L116.229 65.3037C128.454 55.5138 142.96 49.274 158.112 46.872L157.373 42.3776ZM165.295 97.5171C170.74 82.1062 171.786 65.7668 168.741 50.192L164.191 51.0509C167.086 65.8588 166.09 81.3861 160.917 96.0241L165.295 97.5171ZM160.169 97.4466L133.684 134.636L137.48 137.246L163.966 100.057L160.169 97.4466ZM134.773 134.442L88.4486 102.598L85.7921 106.328L132.116 138.172L134.773 134.442ZM88.4486 102.598C88.7239 102.787 88.8576 103.149 88.7318 103.493L84.3705 101.955C83.7781 103.577 84.3845 105.361 85.7921 106.328L88.4486 102.598ZM133.823 134.487C134.108 134.254 134.498 134.253 134.773 134.442L132.116 138.172C133.525 139.14 135.439 139.089 136.788 137.986L133.823 134.487ZM133.684 134.636C133.722 134.582 133.768 134.532 133.823 134.487L136.788 137.986C137.053 137.769 137.285 137.52 137.48 137.246L133.684 134.636ZM160.917 96.0241C160.743 96.5169 160.491 96.9952 160.169 97.4466L163.966 100.057C164.516 99.2851 164.971 98.4337 165.295 97.5171L160.917 96.0241ZM158.112 46.872C160.971 46.4184 163.644 48.2562 164.191 51.0509L168.741 50.192C167.722 44.9802 162.707 41.5322 157.373 42.3776L158.112 46.872ZM115.125 66.4816C115.446 66.0302 115.817 65.6333 116.229 65.3037L113.301 61.7748C112.535 62.3879 111.877 63.0999 111.328 63.8717L115.125 66.4816ZM84.84 101.064C84.6454 101.337 84.4869 101.637 84.3705 101.955L88.7318 103.493C88.7077 103.559 88.6752 103.62 88.6367 103.674L84.84 101.064Z" fill="black"/>
</g>
<path d="M85.1893 108.226L130.979 139.702L124.452 148.866C121.751 152.659 116.432 153.582 112.571 150.929L80.7621 129.063C76.9016 126.409 75.9618 121.183 78.663 117.39L85.1893 108.226Z" fill="white" stroke="black" stroke-width="1.80201"/>
<path d="M74.7134 135.08L74.7134 135.08C73.1404 133.999 70.973 134.375 69.8724 135.92L59.2441 150.844C58.1435 152.389 58.5265 154.518 60.0995 155.6C61.6724 156.681 63.8398 156.305 64.9404 154.759L75.5687 139.836C76.6693 138.291 76.2863 136.161 74.7134 135.08Z" fill="white"/>
<path d="M74.7134 135.08L74.7134 135.08C76.2863 136.161 76.6693 138.291 75.5687 139.836L64.9404 154.759C63.8398 156.305 61.6724 156.681 60.0995 155.6L60.0995 155.6C58.5265 154.518 58.1435 152.389 59.2441 150.844L69.8724 135.92C70.973 134.375 73.1404 133.999 74.7134 135.08Z" stroke="black" stroke-width="1.80241"/>
<path d="M108.893 158.575L108.893 158.575C107.32 157.494 105.153 157.87 104.052 159.416L93.4238 174.339C92.3232 175.884 92.7062 178.014 94.2791 179.095C95.8521 180.176 98.0195 179.8 99.1201 178.255L109.748 163.331C110.849 161.786 110.466 159.657 108.893 158.575Z" fill="white"/>
<path d="M108.893 158.575L108.893 158.575C110.466 159.657 110.849 161.786 109.748 163.331L99.1201 178.255C98.0195 179.8 95.8521 180.176 94.2791 179.095L94.2791 179.095C92.7062 178.014 92.3232 175.884 93.4238 174.339L104.052 159.416C105.153 157.87 107.32 157.494 108.893 158.575Z" stroke="black" stroke-width="1.80241"/>
<path d="M93.1313 144.963L93.1313 144.963C91.5584 143.882 89.391 144.258 88.2904 145.804L67.6981 174.718C66.5975 176.263 66.9804 178.393 68.5534 179.474C70.1264 180.555 72.2938 180.179 73.3944 178.633L93.9867 149.719C95.0873 148.174 94.7043 146.045 93.1313 144.963Z" fill="white"/>
<path d="M93.1313 144.963L93.1313 144.963C94.7043 146.045 95.0873 148.174 93.9867 149.719L73.3944 178.633C72.2938 180.179 70.1264 180.555 68.5534 179.474L68.5534 179.474C66.9804 178.393 66.5975 176.263 67.6981 174.718L88.2904 145.804C89.391 144.258 91.5584 143.882 93.1313 144.963Z" stroke="black" stroke-width="1.80241"/>
<path d="M30.4278 314.343H14.2317V304.127H30.4278C32.9307 304.127 34.968 303.72 36.5396 302.905C38.1112 302.061 39.2608 300.897 39.9884 299.413C40.7159 297.928 41.0797 296.255 41.0797 294.392C41.0797 292.501 40.7159 290.74 39.9884 289.11C39.2608 287.48 38.1112 286.171 36.5396 285.181C34.968 284.192 32.9307 283.697 30.4278 283.697H18.7718V337H5.6752V273.438H30.4278C35.4045 273.438 39.6682 274.34 43.2189 276.144C46.7986 277.92 49.5343 280.379 51.4261 283.522C53.3178 286.665 54.2637 290.26 54.2637 294.305C54.2637 298.409 53.3178 301.959 51.4261 304.957C49.5343 307.955 46.7986 310.268 43.2189 311.898C39.6682 313.528 35.4045 314.343 30.4278 314.343ZM74.8917 269.945V337H62.2753V269.945H74.8917ZM109.882 326.348V305.306C109.882 303.793 109.635 302.498 109.14 301.421C108.646 300.315 107.874 299.456 106.827 298.845C105.808 298.234 104.484 297.928 102.854 297.928C101.457 297.928 100.249 298.176 99.2305 298.671C98.2119 299.136 97.4261 299.82 96.8731 300.722C96.3201 301.595 96.0436 302.629 96.0436 303.822H83.4709C83.4709 301.814 83.9365 299.907 84.8679 298.103C85.7992 296.299 87.1525 294.712 88.9278 293.345C90.7031 291.948 92.8131 290.856 95.2578 290.07C97.7317 289.285 100.496 288.892 103.552 288.892C107.219 288.892 110.479 289.503 113.331 290.725C116.183 291.948 118.424 293.781 120.054 296.226C121.713 298.671 122.542 301.726 122.542 305.393V325.606C122.542 328.196 122.703 330.321 123.023 331.98C123.343 333.609 123.808 335.036 124.42 336.258V337H111.716C111.105 335.719 110.639 334.119 110.319 332.198C110.028 330.248 109.882 328.298 109.882 326.348ZM111.541 308.231L111.629 315.347H104.6C102.941 315.347 101.501 315.536 100.278 315.914C99.0559 316.293 98.0518 316.831 97.266 317.53C96.4802 318.199 95.8981 318.985 95.5198 319.887C95.1705 320.789 94.9959 321.779 94.9959 322.856C94.9959 323.932 95.2433 324.907 95.7381 325.781C96.2328 326.625 96.9459 327.294 97.8772 327.789C98.8085 328.254 99.8999 328.487 101.151 328.487C103.043 328.487 104.687 328.109 106.084 327.352C107.481 326.595 108.558 325.664 109.315 324.558C110.101 323.452 110.508 322.405 110.537 321.415L113.855 326.741C113.389 327.934 112.749 329.171 111.934 330.452C111.148 331.732 110.144 332.94 108.922 334.075C107.7 335.181 106.23 336.098 104.513 336.825C102.796 337.524 100.758 337.873 98.401 337.873C95.4034 337.873 92.6822 337.276 90.2375 336.083C87.8219 334.861 85.901 333.187 84.475 331.063C83.078 328.909 82.3795 326.464 82.3795 323.729C82.3795 321.255 82.8452 319.058 83.7765 317.137C84.7078 315.216 86.0757 313.601 87.8801 312.291C89.7136 310.952 91.9982 309.948 94.734 309.279C97.4697 308.58 100.642 308.231 104.251 308.231H111.541ZM143.651 299.849V337H131.078V289.765H142.865L143.651 299.849ZM141.817 311.724H138.412C138.412 308.231 138.863 305.088 139.765 302.294C140.668 299.471 141.934 297.07 143.563 295.091C145.193 293.083 147.129 291.555 149.37 290.507C151.64 289.43 154.172 288.892 156.966 288.892C159.178 288.892 161.2 289.212 163.034 289.852C164.867 290.492 166.439 291.511 167.749 292.908C169.087 294.305 170.106 296.153 170.804 298.452C171.532 300.751 171.896 303.56 171.896 306.878V337H159.236V306.834C159.236 304.739 158.945 303.109 158.363 301.945C157.781 300.781 156.922 299.966 155.787 299.5C154.681 299.005 153.313 298.758 151.683 298.758C149.995 298.758 148.526 299.093 147.274 299.762C146.052 300.431 145.033 301.363 144.218 302.556C143.432 303.72 142.836 305.088 142.428 306.659C142.021 308.231 141.817 309.919 141.817 311.724ZM193.834 289.765V337H181.217V289.765H193.834ZM180.431 277.454C180.431 275.62 181.072 274.107 182.352 272.914C183.633 271.721 185.35 271.124 187.503 271.124C189.628 271.124 191.331 271.721 192.611 272.914C193.921 274.107 194.576 275.62 194.576 277.454C194.576 279.288 193.921 280.801 192.611 281.994C191.331 283.187 189.628 283.784 187.503 283.784C185.35 283.784 183.633 283.187 182.352 281.994C181.072 280.801 180.431 279.288 180.431 277.454ZM226.467 289.765V298.671H198.964V289.765H226.467ZM205.774 278.109H218.347V322.768C218.347 324.136 218.522 325.184 218.871 325.912C219.249 326.639 219.802 327.148 220.53 327.439C221.257 327.701 222.174 327.832 223.28 327.832C224.066 327.832 224.764 327.803 225.375 327.745C226.016 327.658 226.554 327.57 226.991 327.483L227.034 336.738C225.957 337.087 224.793 337.364 223.542 337.568C222.29 337.771 220.908 337.873 219.395 337.873C216.63 337.873 214.214 337.422 212.148 336.52C210.111 335.588 208.539 334.104 207.433 332.067C206.327 330.03 205.774 327.352 205.774 324.034V278.109Z" fill="black"/>
</svg>
