<svg width="207" height="56" viewBox="0 0 207 56" fill="none" xmlns="http://www.w3.org/2000/svg">
<rect y="0.500488" width="55.5005" height="55.5005" rx="27.7502" fill="#252424"/>
<path d="M37.421 37.1321C36.5297 35.1644 34.4179 34.4708 33.4734 34.37L38.0111 27.8847C40.1602 31.6564 38.5131 35.6212 37.421 37.1321Z" fill="white" stroke="white" stroke-width="0.516207"/>
<path d="M16.2189 22.2972C18.3729 22.4602 19.7481 24.2065 20.1665 25.0593L24.7042 18.5739C20.4244 17.8475 17.2641 20.7534 16.2189 22.2972Z" fill="white" stroke="white" stroke-width="0.516207"/>
<mask id="path-4-inside-1_1_356" fill="white">
<path fill-rule="evenodd" clip-rule="evenodd" d="M21.0756 26.0036C21.0861 25.9743 21.1005 25.9466 21.1183 25.9212L27.1445 17.3084C27.2436 17.1668 27.3607 17.0385 27.4946 16.9293C30.3495 14.6021 33.7365 13.1194 37.2732 12.5487C38.2052 12.3983 39.08 13.0104 39.258 13.9375C39.9338 17.4556 39.7015 21.1456 38.4935 24.625C38.4369 24.7883 38.3564 24.9423 38.2573 25.0838L32.2311 33.6965C32.2133 33.7219 32.1922 33.745 32.1683 33.7648V33.7648C32.0473 33.8656 31.8738 33.8715 31.7448 33.7812L21.2053 26.4068C21.0763 26.3166 21.0224 26.1517 21.0756 26.0036V26.0036Z"/>
</mask>
<path fill-rule="evenodd" clip-rule="evenodd" d="M21.0756 26.0036C21.0861 25.9743 21.1005 25.9466 21.1183 25.9212L27.1445 17.3084C27.2436 17.1668 27.3607 17.0385 27.4946 16.9293C30.3495 14.6021 33.7365 13.1194 37.2732 12.5487C38.2052 12.3983 39.08 13.0104 39.258 13.9375C39.9338 17.4556 39.7015 21.1456 38.4935 24.625C38.4369 24.7883 38.3564 24.9423 38.2573 25.0838L32.2311 33.6965C32.2133 33.7219 32.1922 33.745 32.1683 33.7648V33.7648C32.0473 33.8656 31.8738 33.8715 31.7448 33.7812L21.2053 26.4068C21.0763 26.3166 21.0224 26.1517 21.0756 26.0036V26.0036Z" fill="white"/>
<path d="M38.4935 24.625L37.9955 24.4522L38.4935 24.625ZM21.5502 26.2234L27.5765 17.6106L26.7126 17.0062L20.6864 25.619L21.5502 26.2234ZM37.1893 12.0283C33.5633 12.6134 30.0899 14.1337 27.1616 16.5207L27.8277 17.3379C30.6091 15.0706 33.9097 13.6255 37.3572 13.0691L37.1893 12.0283ZM38.9915 24.7979C40.2305 21.229 40.4685 17.445 39.7757 13.838L38.7404 14.0369C39.399 17.4663 39.1724 21.0622 37.9955 24.4522L38.9915 24.7979ZM37.8254 24.7816L31.7992 33.3943L32.6631 33.9987L38.6892 25.386L37.8254 24.7816ZM32.047 33.3493L21.5075 25.9749L20.9031 26.8387L31.4426 34.2131L32.047 33.3493ZM21.5075 25.9749C21.5699 26.0186 21.6003 26.1021 21.5718 26.1816L20.5794 25.8255C20.4446 26.2013 20.5827 26.6146 20.9031 26.8387L21.5075 25.9749ZM31.831 33.3597C31.8959 33.3057 31.9846 33.3056 32.047 33.3493L31.4426 34.2131C31.7631 34.4373 32.1987 34.4255 32.5056 34.1699L31.831 33.3597ZM31.7992 33.3943C31.8079 33.3818 31.8185 33.3701 31.831 33.3597L32.5056 34.1699C32.5659 34.1198 32.6187 34.062 32.6631 33.9987L31.7992 33.3943ZM37.9955 24.4522C37.9559 24.5664 37.8985 24.6771 37.8254 24.7816L38.6892 25.386C38.8142 25.2074 38.9178 25.0102 38.9915 24.7979L37.9955 24.4522ZM37.3572 13.0691C38.0078 12.9641 38.616 13.3897 38.7404 14.0369L39.7757 13.838C39.5439 12.631 38.4026 11.8325 37.1893 12.0283L37.3572 13.0691ZM27.5765 17.6106C27.6496 17.5061 27.734 17.4142 27.8277 17.3379L27.1616 16.5207C26.9874 16.6627 26.8376 16.8275 26.7126 17.0062L27.5765 17.6106ZM20.6864 25.619C20.642 25.6823 20.6059 25.7517 20.5794 25.8255L21.5718 26.1816C21.5663 26.1969 21.5589 26.2109 21.5502 26.2234L20.6864 25.619Z" fill="white" mask="url(#path-4-inside-1_1_356)"/>
<path d="M20.7657 27.2777L31.1839 34.5672L29.699 36.6895C29.0844 37.5679 27.8741 37.7817 26.9957 37.1671L19.7584 32.1032C18.88 31.4886 18.6661 30.2783 19.2807 29.4L20.7657 27.2777Z" fill="white" stroke="white" stroke-width="0.527145"/>
<rect x="17.4719" y="34.0759" width="0.827263" height="5.79989" rx="0.413631" transform="rotate(34.9801 17.4719 34.0759)" fill="white" stroke="white" stroke-width="0.527263"/>
<rect x="25.2481" y="39.5169" width="0.827263" height="5.79989" rx="0.413631" transform="rotate(34.9801 25.2481 39.5169)" fill="white" stroke="white" stroke-width="0.527263"/>
<rect x="21.6623" y="36.3644" width="0.827263" height="9.75436" rx="0.413631" transform="rotate(34.9801 21.6623 36.3644)" fill="white" stroke="white" stroke-width="0.527263"/>
<path d="M68.2597 45.5005V12.1175H79.753C81.5493 12.1175 83.1708 12.5626 84.6174 13.4528C86.0799 14.343 87.2403 15.5432 88.0988 17.0534C88.9731 18.5636 89.4102 20.2327 89.4102 22.0609C89.4102 23.9208 88.9651 25.6058 88.0749 27.116C87.2006 28.6103 86.0322 29.8025 84.5697 30.6927C83.1072 31.583 81.5016 32.0281 79.753 32.0281H73.2195V45.5005H68.2597ZM73.2195 27.0683H79.2523C80.2061 27.0683 81.0724 26.8299 81.8514 26.353C82.6462 25.8761 83.2741 25.2402 83.7351 24.4454C84.212 23.6505 84.4505 22.7524 84.4505 21.7509C84.4505 20.7494 84.212 19.8512 83.7351 19.0564C83.2741 18.2457 82.6462 17.6098 81.8514 17.1488C81.0724 16.6719 80.2061 16.4334 79.2523 16.4334H73.2195V27.0683ZM93.9676 45.5005V9.73299H98.9274V45.5005H93.9676ZM122.858 21.6555H127.818V45.5005H122.834L122.643 42.043C121.944 43.267 120.998 44.2526 119.806 44.9997C118.614 45.7469 117.207 46.1205 115.585 46.1205C113.837 46.1205 112.191 45.7946 110.649 45.1428C109.107 44.4752 107.748 43.5531 106.572 42.3768C105.411 41.2004 104.505 39.8492 103.854 38.3231C103.202 36.7812 102.876 35.1279 102.876 33.3634C102.876 31.6624 103.194 30.0648 103.83 28.5705C104.466 27.0604 105.348 25.7409 106.477 24.6123C107.605 23.4836 108.909 22.6013 110.387 21.9655C111.881 21.3137 113.479 20.9878 115.18 20.9878C116.913 20.9878 118.439 21.3852 119.758 22.1801C121.094 22.959 122.198 23.9605 123.073 25.1845L122.858 21.6555ZM115.466 41.3276C116.865 41.3276 118.089 40.9858 119.138 40.3023C120.187 39.6028 120.998 38.6649 121.57 37.4886C122.159 36.3122 122.453 35.0087 122.453 33.578C122.453 32.1314 122.159 30.8199 121.57 29.6436C120.982 28.4672 120.164 27.5373 119.114 26.8537C118.081 26.1542 116.865 25.8045 115.466 25.8045C114.083 25.8045 112.819 26.1542 111.675 26.8537C110.53 27.5532 109.624 28.4911 108.956 29.6674C108.289 30.8438 107.955 32.1473 107.955 33.578C107.955 35.0246 108.297 36.3361 108.98 37.5124C109.68 38.6729 110.594 39.6028 111.722 40.3023C112.867 40.9858 114.115 41.3276 115.466 41.3276ZM154.037 30.5497V45.5005H149.077V31.7658C149.077 30.7007 148.814 29.731 148.29 28.8567C147.781 27.9824 147.09 27.2909 146.215 26.7822C145.357 26.2576 144.387 25.9953 143.306 25.9953C142.257 25.9953 141.295 26.2576 140.421 26.7822C139.547 27.2909 138.847 27.9824 138.323 28.8567C137.798 29.731 137.536 30.7007 137.536 31.7658V45.5005H132.576V21.6555H137.536V24.1831C138.362 23.1975 139.38 22.4185 140.588 21.8462C141.796 21.274 143.1 20.9878 144.499 20.9878C146.263 20.9878 147.869 21.417 149.315 22.2755C150.762 23.1339 151.906 24.2864 152.749 25.733C153.607 27.1796 154.037 28.7851 154.037 30.5497ZM158.796 28.7136H174.057V33.6734H158.796V28.7136ZM180.516 45.5005V12.1175H185.475V45.5005H180.516ZM204.499 26.6152H199.492L199.468 45.5005H194.508L194.532 26.6152H190.741V21.6555H194.532L194.508 14.1682H199.468L199.492 21.6555H204.499V26.6152Z" fill="black"/>
</svg>
