<svg width="222" height="69" viewBox="0 0 222 69" fill="none" xmlns="http://www.w3.org/2000/svg">
<path d="M25.0938 45.1099H8.89768V34.8946H25.0938C27.5967 34.8946 29.634 34.4871 31.2056 33.6722C32.7772 32.8282 33.9268 31.6641 34.6544 30.1798C35.382 28.6955 35.7458 27.022 35.7458 25.1594C35.7458 23.2677 35.382 21.5069 34.6544 19.8771C33.9268 18.2473 32.7772 16.9376 31.2056 15.9481C29.634 14.9586 27.5967 14.4638 25.0938 14.4638H13.4378V67.7671H0.341218V4.20482H25.0938C30.0706 4.20482 34.3342 5.10703 37.8849 6.91145C41.4646 8.68677 44.2004 11.146 46.0921 14.2892C47.9838 17.4324 48.9297 21.0267 48.9297 25.0721C48.9297 29.1757 47.9838 32.7264 46.0921 35.724C44.2004 38.7217 41.4646 41.0354 37.8849 42.6652C34.3342 44.295 30.0706 45.1099 25.0938 45.1099ZM69.5577 0.712385V67.7671H56.9413V0.712385H69.5577ZM104.548 57.1152V36.0733C104.548 34.5599 104.301 33.2648 103.806 32.1879C103.312 31.082 102.54 30.2234 101.493 29.6123C100.474 29.0011 99.1497 28.6955 97.5199 28.6955C96.1229 28.6955 94.9151 28.9429 93.8965 29.4376C92.8779 29.9033 92.0921 30.5872 91.5391 31.4894C90.9861 32.3626 90.7097 33.3957 90.7097 34.589H78.1369C78.1369 32.5808 78.6026 30.6745 79.5339 28.8701C80.4652 27.0657 81.8185 25.4796 83.5938 24.1117C85.3691 22.7147 87.4792 21.6233 89.9239 20.8375C92.3977 20.0517 95.1625 19.6588 98.2184 19.6588C101.885 19.6588 105.145 20.27 107.997 21.4924C110.849 22.7147 113.09 24.5482 114.72 26.9929C116.379 29.4376 117.208 32.4935 117.208 36.1606V56.373C117.208 58.9632 117.369 61.0878 117.689 62.7467C118.009 64.3765 118.474 65.8026 119.086 67.0249V67.7671H106.382C105.771 66.4865 105.305 64.8858 104.985 62.965C104.694 61.0151 104.548 59.0651 104.548 57.1152ZM106.207 38.9982L106.295 46.114H99.2661C97.6072 46.114 96.1666 46.3032 94.9442 46.6815C93.7219 47.0599 92.7178 47.5983 91.932 48.2968C91.1462 48.9662 90.5641 49.752 90.1858 50.6542C89.8366 51.5564 89.6619 52.5459 89.6619 53.6227C89.6619 54.6996 89.9093 55.6745 90.4041 56.5477C90.8988 57.3917 91.6119 58.061 92.5432 58.5558C93.4745 59.0215 94.5659 59.2543 95.8173 59.2543C97.7091 59.2543 99.3534 58.8759 100.75 58.1192C102.147 57.3626 103.224 56.4312 103.981 55.3253C104.767 54.2194 105.174 53.1716 105.203 52.1821L108.521 57.5081C108.055 58.7013 107.415 59.9382 106.6 61.2188C105.814 62.4993 104.81 63.7071 103.588 64.8422C102.366 65.9481 100.896 66.8649 99.1788 67.5925C97.4617 68.291 95.4244 68.6402 93.0671 68.6402C90.0694 68.6402 87.3482 68.0436 84.9035 66.8503C82.4879 65.628 80.5671 63.9545 79.141 61.83C77.744 59.6763 77.0455 57.2316 77.0455 54.4958C77.0455 52.022 77.5112 49.8247 78.4425 47.9039C79.3738 45.983 80.7417 44.3678 82.5461 43.0581C84.3796 41.7194 86.6643 40.7153 89.4 40.0459C92.1357 39.3474 95.308 38.9982 98.9169 38.9982H106.207ZM138.317 30.6163V67.7671H125.744V20.5319H137.531L138.317 30.6163ZM136.483 42.4906H133.078C133.078 38.9982 133.529 35.855 134.431 33.061C135.334 30.238 136.6 27.8369 138.229 25.8579C139.859 23.8498 141.795 22.3218 144.036 21.2741C146.306 20.1972 148.838 19.6588 151.632 19.6588C153.844 19.6588 155.866 19.979 157.7 20.6193C159.533 21.2595 161.105 22.2782 162.415 23.6751C163.753 25.0721 164.772 26.9202 165.47 29.2194C166.198 31.5186 166.562 34.327 166.562 37.6449V67.7671H153.902V37.6012C153.902 35.5057 153.611 33.8759 153.029 32.7118C152.447 31.5477 151.588 30.7328 150.453 30.2671C149.347 29.7723 147.979 29.525 146.349 29.525C144.661 29.525 143.192 29.8596 141.94 30.529C140.718 31.1984 139.699 32.1297 138.884 33.323C138.098 34.4871 137.502 35.855 137.094 37.4266C136.687 38.9982 136.483 40.6862 136.483 42.4906ZM188.5 20.5319V67.7671H175.883V20.5319H188.5ZM175.097 8.22112C175.097 6.38759 175.738 4.8742 177.018 3.68095C178.299 2.48771 180.016 1.89108 182.169 1.89108C184.294 1.89108 185.997 2.48771 187.277 3.68095C188.587 4.8742 189.242 6.38759 189.242 8.22112C189.242 10.0546 188.587 11.568 187.277 12.7613C185.997 13.9545 184.294 14.5511 182.169 14.5511C180.016 14.5511 178.299 13.9545 177.018 12.7613C175.738 11.568 175.097 10.0546 175.097 8.22112ZM221.133 20.5319V29.4376H193.63V20.5319H221.133ZM200.44 8.87595H213.013V53.5354C213.013 54.9033 213.188 55.951 213.537 56.6786C213.915 57.4062 214.468 57.9155 215.196 58.2066C215.923 58.4685 216.84 58.5995 217.946 58.5995C218.732 58.5995 219.43 58.5704 220.041 58.5121C220.682 58.4248 221.22 58.3375 221.657 58.2502L221.7 67.5052C220.623 67.8544 219.459 68.1309 218.208 68.3346C216.956 68.5383 215.574 68.6402 214.061 68.6402C211.296 68.6402 208.88 68.1891 206.814 67.2869C204.777 66.3556 203.205 64.8713 202.099 62.834C200.993 60.7968 200.44 58.1192 200.44 54.8014V8.87595Z" fill="black"/>
</svg>
