<svg width="64" height="88" viewBox="0 0 64 88" fill="none" xmlns="http://www.w3.org/2000/svg">
<rect x="4" width="56" height="56" rx="28" fill="#252424"/>
<path d="M41.7578 36.9612C40.8585 34.9758 38.7277 34.276 37.7747 34.1743L42.3533 27.6306C44.5217 31.4363 42.8598 35.4367 41.7578 36.9612Z" fill="white" stroke="white" stroke-width="0.520853"/>
<path d="M20.365 21.9929C22.5383 22.1574 23.926 23.9194 24.3481 24.7798L28.9266 18.2361C24.6083 17.5031 21.4196 20.4352 20.365 21.9929Z" fill="white" stroke="white" stroke-width="0.520853"/>
<mask id="path-4-inside-1_7_6" fill="white">
<path fill-rule="evenodd" clip-rule="evenodd" d="M25.2653 25.7325C25.2759 25.703 25.2904 25.675 25.3084 25.6493L31.3887 16.9593C31.4886 16.8165 31.6068 16.6869 31.7419 16.5768C34.6225 14.2286 38.0401 12.7325 41.6087 12.1567C42.5491 12.0049 43.4317 12.6225 43.6114 13.5579C44.2932 17.1076 44.0588 20.8307 42.8401 24.3413C42.7829 24.5061 42.7017 24.6614 42.6018 24.8043L36.5209 33.4951C36.503 33.5208 36.4817 33.544 36.4576 33.564V33.564C36.3356 33.6656 36.1608 33.6715 36.0307 33.5805L25.3963 26.1397C25.266 26.0486 25.2116 25.8821 25.2653 25.7325V25.7325Z"/>
</mask>
<path fill-rule="evenodd" clip-rule="evenodd" d="M25.2653 25.7325C25.2759 25.703 25.2904 25.675 25.3084 25.6493L31.3887 16.9593C31.4886 16.8165 31.6068 16.6869 31.7419 16.5768C34.6225 14.2286 38.0401 12.7325 41.6087 12.1567C42.5491 12.0049 43.4317 12.6225 43.6114 13.5579C44.2932 17.1076 44.0588 20.8307 42.8401 24.3413C42.7829 24.5061 42.7017 24.6614 42.6018 24.8043L36.5209 33.4951C36.503 33.5208 36.4817 33.544 36.4576 33.564V33.564C36.3356 33.6656 36.1608 33.6715 36.0307 33.5805L25.3963 26.1397C25.266 26.0486 25.2116 25.8821 25.2653 25.7325V25.7325Z" fill="white"/>
<path d="M25.3963 26.1397L25.7012 25.7039L25.3963 26.1397ZM36.0307 33.5805L35.7258 34.0163L36.0307 33.5805ZM36.5209 33.4951L36.9567 33.8L36.5209 33.4951ZM42.8401 24.3413L42.3376 24.1669L42.8401 24.3413ZM42.6018 24.8043L42.166 24.4994L42.6018 24.8043ZM31.7419 16.5768L32.078 16.989L31.7419 16.5768ZM25.7442 25.9542L31.8245 17.2642L30.9529 16.6544L24.8726 25.3444L25.7442 25.9542ZM41.524 11.6316C37.8653 12.222 34.3606 13.756 31.4058 16.1645L32.078 16.989C34.8845 14.7013 38.2149 13.2431 41.6934 12.6818L41.524 11.6316ZM43.3426 24.5158C44.5926 20.9148 44.8327 17.0969 44.1337 13.4576L43.089 13.6583C43.7536 17.1184 43.525 20.7465 42.3376 24.1669L43.3426 24.5158ZM42.166 24.4994L36.0851 33.1902L36.9567 33.8L43.0376 25.1092L42.166 24.4994ZM36.3356 33.1447L25.7012 25.7039L25.0913 26.5755L35.7258 34.0163L36.3356 33.1447ZM25.7012 25.7039C25.7641 25.7479 25.7947 25.832 25.7659 25.9121L24.7647 25.5528C24.6285 25.9322 24.768 26.3492 25.0913 26.5755L25.7012 25.7039ZM36.1173 33.1552C36.1828 33.1007 36.2726 33.1006 36.3356 33.1447L35.7258 34.0163C36.049 34.2424 36.4884 34.2305 36.7979 33.9728L36.1173 33.1552ZM36.0851 33.1902C36.0939 33.1776 36.1046 33.1658 36.1173 33.1552L36.7979 33.9728C36.8587 33.9222 36.912 33.8639 36.9567 33.8L36.0851 33.1902ZM42.3376 24.1669C42.2976 24.2821 42.2397 24.3939 42.166 24.4994L43.0376 25.1092C43.1637 24.9289 43.2682 24.73 43.3426 24.5158L42.3376 24.1669ZM41.6934 12.6818C42.3499 12.5758 42.9636 13.0052 43.089 13.6583L44.1337 13.4576C43.8998 12.2397 42.7483 11.434 41.524 11.6316L41.6934 12.6818ZM31.8245 17.2642C31.8983 17.1588 31.9834 17.0661 32.078 16.989L31.4058 16.1645C31.2301 16.3078 31.079 16.4741 30.9529 16.6544L31.8245 17.2642ZM24.8726 25.3444C24.8279 25.4083 24.7914 25.4783 24.7647 25.5528L25.7659 25.9121C25.7604 25.9276 25.753 25.9417 25.7442 25.9542L24.8726 25.3444Z" fill="white" mask="url(#path-4-inside-1_7_6)"/>
<path d="M24.9525 27.0183L35.4645 34.3734L33.9662 36.5147C33.3461 37.401 32.1249 37.6168 31.2386 36.9967L23.9362 31.8872C23.0499 31.2671 22.8341 30.0459 23.4542 29.1596L24.9525 27.0183Z" fill="white" stroke="white" stroke-width="0.53189"/>
<rect x="21.6291" y="33.8775" width="0.834708" height="5.85209" rx="0.417354" transform="rotate(34.9801 21.6291 33.8775)" fill="white" stroke="white" stroke-width="0.532008"/>
<rect x="29.4753" y="39.3675" width="0.834708" height="5.85209" rx="0.417354" transform="rotate(34.9801 29.4753 39.3675)" fill="white" stroke="white" stroke-width="0.532008"/>
<rect x="25.8573" y="36.1866" width="0.834708" height="9.84215" rx="0.417354" transform="rotate(34.9801 25.8573 36.1866)" fill="white" stroke="white" stroke-width="0.532008"/>
<path d="M1.3014 83V67.817H6.52869C7.34568 67.817 8.08314 68.0194 8.74107 68.4243C9.40623 68.8292 9.93402 69.3751 10.3244 70.0619C10.7221 70.7488 10.9209 71.5079 10.9209 72.3394C10.9209 73.1853 10.7185 73.9517 10.3136 74.6385C9.91595 75.3181 9.38454 75.8604 8.71938 76.2653C8.05422 76.6701 7.32399 76.8726 6.52869 76.8726H3.55716V83H1.3014ZM3.55716 74.6168H6.30095C6.73475 74.6168 7.12878 74.5084 7.48305 74.2915C7.84455 74.0746 8.13014 73.7854 8.33981 73.4239C8.55671 73.0624 8.66516 72.6539 8.66516 72.1984C8.66516 71.7429 8.55671 71.3344 8.33981 70.9729C8.13014 70.6042 7.84455 70.315 7.48305 70.1053C7.12878 69.8884 6.73475 69.7799 6.30095 69.7799H3.55716V74.6168ZM12.9937 83V66.7325H15.2494V83H12.9937ZM26.1334 72.155H28.3892V83H26.1226L26.0358 81.4275C25.7177 81.9842 25.2875 82.4324 24.7452 82.7723C24.203 83.1121 23.5631 83.282 22.8257 83.282C22.0304 83.282 21.2821 83.1338 20.5808 82.8373C19.8795 82.5337 19.2613 82.1143 18.7263 81.5793C18.1985 81.0443 17.7864 80.4297 17.4899 79.7357C17.1935 79.0343 17.0453 78.2824 17.0453 77.4799C17.0453 76.7063 17.1899 75.9797 17.4791 75.3C17.7683 74.6132 18.1696 74.0131 18.6829 73.4998C19.1962 72.9864 19.7891 72.5852 20.4615 72.296C21.1411 71.9996 21.8677 71.8513 22.6413 71.8513C23.4294 71.8513 24.1235 72.0321 24.7236 72.3936C25.3309 72.7479 25.8334 73.2033 26.231 73.7601L26.1334 72.155ZM22.7715 81.1021C23.4077 81.1021 23.9644 80.9467 24.4416 80.6358C24.9188 80.3177 25.2875 79.8911 25.5478 79.3561C25.8153 78.8211 25.949 78.2282 25.949 77.5775C25.949 76.9196 25.8153 76.3231 25.5478 75.7881C25.2803 75.2531 24.9079 74.8301 24.4307 74.5192C23.9608 74.2011 23.4077 74.042 22.7715 74.042C22.1424 74.042 21.5677 74.2011 21.0471 74.5192C20.5265 74.8373 20.1144 75.2639 19.8108 75.7989C19.5071 76.3339 19.3553 76.9268 19.3553 77.5775C19.3553 78.2354 19.5107 78.8319 19.8216 79.3669C20.1397 79.8947 20.5555 80.3177 21.0688 80.6358C21.5893 80.9467 22.1569 81.1021 22.7715 81.1021ZM40.3137 76.2002V83H38.058V76.7533C38.058 76.2689 37.9387 75.8278 37.7001 75.4302C37.4687 75.0325 37.1542 74.718 36.7566 74.4867C36.3662 74.2481 35.9251 74.1288 35.4335 74.1288C34.9563 74.1288 34.5189 74.2481 34.1213 74.4867C33.7236 74.718 33.4055 75.0325 33.1669 75.4302C32.9283 75.8278 32.809 76.2689 32.809 76.7533V83H30.5532V72.155H32.809V73.3046C33.185 72.8563 33.6477 72.502 34.1972 72.2418C34.7466 71.9815 35.3395 71.8513 35.9757 71.8513C36.7783 71.8513 37.5085 72.0465 38.1664 72.437C38.8244 72.8274 39.3449 73.3516 39.7281 74.0095C40.1185 74.6674 40.3137 75.3977 40.3137 76.2002ZM42.4785 75.3651H49.4193V77.6209H42.4785V75.3651ZM52.3568 83V67.817H54.6125V83H52.3568ZM63.2648 74.4108H60.9874L60.9765 83H58.7208L58.7316 74.4108H57.0073V72.155H58.7316L58.7208 68.7497H60.9765L60.9874 72.155H63.2648V74.4108Z" fill="black"/>
</svg>
